<?xml version="1.0" encoding="utf-8"?>
<!-- Generator: Adobe Illustrator 28.1.0, SVG Export Plug-In . SVG Version: 6.00 Build 0)  -->
<svg version="1.1" id="Calque_1" xmlns="http://www.w3.org/2000/svg" xmlns:xlink="http://www.w3.org/1999/xlink" x="0px" y="0px"
	 viewBox="0 0 841.89 595.28" style="enable-background:new 0 0 841.89 595.28;" xml:space="preserve">
<style type="text/css">
	.st0{fill:url(#SVGID_1_);}
	.st1{fill:url(#SVGID_00000125604659229269816830000004246263464122355634_);}
	.st2{fill:url(#SVGID_00000052072498989821433320000011540874789929204895_);}
	.st3{fill:url(#SVGID_00000032626875995745855150000003062026014296792247_);}
	.st4{fill:url(#SVGID_00000023993317807602509410000017006161350281164707_);}
	.st5{fill:url(#SVGID_00000162310674458343575890000007821015112794160519_);}
	.st6{fill:url(#SVGID_00000127022898939514792840000014431934570790615434_);}
	.st7{fill:url(#SVGID_00000045616472513230918620000007503710849369515157_);}
	.st8{fill:url(#SVGID_00000088850972332824106830000000909372117796144315_);}
	.st9{fill:#24356A;}
</style>
<g>
	<linearGradient id="SVGID_1_" gradientUnits="userSpaceOnUse" x1="243.5092" y1="441.6064" x2="421.2126" y2="181.8861">
		<stop  offset="0" style="stop-color:#24356A"/>
		<stop  offset="0.5108" style="stop-color:#1EB1C4"/>
		<stop  offset="1" style="stop-color:#FFFFFF"/>
	</linearGradient>
	<polygon class="st0" points="455.01,124.25 446.3,124.42 345.12,283.29 327.8,256.23 320.31,256.23 341.62,288.78 260.1,416.78 
		268.82,416.61 345.85,295.66 365.25,325.86 372.74,325.86 349.43,290.04 	"/>
	
		<linearGradient id="SVGID_00000098207171106239612420000001957219992866188957_" gradientUnits="userSpaceOnUse" x1="243.9835" y1="441.9308" x2="421.6868" y2="182.2106">
		<stop  offset="0" style="stop-color:#24356A"/>
		<stop  offset="0.5108" style="stop-color:#1EB1C4"/>
		<stop  offset="1" style="stop-color:#FFFFFF"/>
	</linearGradient>
	<path style="fill:url(#SVGID_00000098207171106239612420000001957219992866188957_);" d="M258.22,417.83l82.19-129.05l-21.99-33.57
		h9.93l16.76,26.19l100.61-157.98l11.16-0.22L350.64,290.03l24.86,37.6h-9.92l-19.73-30.09l-76.47,120.07L258.22,417.83z
		 M322.19,257.24l20.64,31.53l-80.86,126.96l6.28-0.12l77.59-121.83l19.96,31.07h5.06l-22.65-34.81l0.35-0.55L453.14,125.3
		l-6.28,0.12L345.12,285.17l-17.88-27.93H322.19z"/>
</g>
<linearGradient id="SVGID_00000050624094892987973170000013969865066515953799_" gradientUnits="userSpaceOnUse" x1="711.91" y1="286.3171" x2="355.5245" y2="292.0652">
	<stop  offset="0" style="stop-color:#24356A"/>
	<stop  offset="1" style="stop-color:#1EB1C4"/>
</linearGradient>
<path style="fill:url(#SVGID_00000050624094892987973170000013969865066515953799_);" d="M390.89,327.73v-70.22l4.93-2.34h24.82
	c10.84,0,16.27,5.46,16.27,16.39v14.04c0,10.92-5.42,16.39-16.27,16.39h-20.45v21.53l-8.83,4.21H390.89z M400.19,263.6v29.96h20.45
	c4.65,0,6.97-2.66,6.97-7.96v-14.04c0-5.31-2.33-7.96-6.97-7.96H400.19z"/>
<linearGradient id="SVGID_00000176741259809451708650000007020684327471298719_" gradientUnits="userSpaceOnUse" x1="711.8857" y1="287.6714" x2="355.512" y2="293.4193">
	<stop  offset="0" style="stop-color:#24356A"/>
	<stop  offset="1" style="stop-color:#1EB1C4"/>
</linearGradient>
<path style="fill:url(#SVGID_00000176741259809451708650000007020684327471298719_);" d="M458.89,327.63v-70.07l4.93-2.4h29.47v0.48
	l-3.77,8.25h-21.33v23.13h25.1v0.48l-3.77,8.25h-21.33v23.13h32.86v0.48l-3.77,8.25H458.89z"/>
<linearGradient id="SVGID_00000115486122846301940530000009049361710603659674_" gradientUnits="userSpaceOnUse" x1="711.9057" y1="288.6839" x2="355.5659" y2="294.4313">
	<stop  offset="0" style="stop-color:#24356A"/>
	<stop  offset="1" style="stop-color:#1EB1C4"/>
</linearGradient>
<path style="fill:url(#SVGID_00000115486122846301940530000009049361710603659674_);" d="M518.39,327.73v-70.22l4.93-2.34h24.82
	c10.84,0,16.27,5.46,16.27,16.39v14.05c0,10.18-4.71,15.62-14.12,16.3l15.24,21.93l-8.18,3.89h-0.47l-17.89-25.75h-11.29v21.53
	l-8.83,4.21H518.39z M527.68,263.6v29.96h20.45c4.65,0,6.97-2.66,6.97-7.96v-14.04c0-5.31-2.33-7.96-6.97-7.96H527.68z"/>
<linearGradient id="SVGID_00000173848095297000609530000001612706161364538505_" gradientUnits="userSpaceOnUse" x1="711.9257" y1="289.4179" x2="355.5823" y2="295.1654">
	<stop  offset="0" style="stop-color:#24356A"/>
	<stop  offset="1" style="stop-color:#1EB1C4"/>
</linearGradient>
<path style="fill:url(#SVGID_00000173848095297000609530000001612706161364538505_);" d="M593.69,327.73v-64.04h-19.89v-0.47
	l3.77-8.05h45.32v0.47l-3.77,8.05h-16.13v59.83l-8.83,4.21H593.69z"/>
<linearGradient id="SVGID_00000136385838406666054560000013233405656489309097_" gradientUnits="userSpaceOnUse" x1="716.7654" y1="290.2635" x2="361.168" y2="295.9989">
	<stop  offset="0" style="stop-color:#24356A"/>
	<stop  offset="1" style="stop-color:#1EB1C4"/>
</linearGradient>
<path style="fill:url(#SVGID_00000136385838406666054560000013233405656489309097_);" d="M638.47,327.73v-68.45l8.83-4.11h0.47
	v68.45l-8.83,4.11H638.47z"/>
<linearGradient id="SVGID_00000070117262192465282820000004849469184941843853_" gradientUnits="userSpaceOnUse" x1="711.9274" y1="291.043" x2="355.5483" y2="296.7911">
	<stop  offset="0" style="stop-color:#24356A"/>
	<stop  offset="1" style="stop-color:#1EB1C4"/>
</linearGradient>
<path style="fill:url(#SVGID_00000070117262192465282820000004849469184941843853_);" d="M681.48,327.63
	c-10.84,0-16.27-5.6-16.27-16.8v-5.28l8.83-4.32h0.46v9.6c0,5.44,2.33,8.16,6.97,8.16h14.41c4.65,0,6.97-2.72,6.97-8.16v-10.08
	c0-5.44-2.33-8.16-6.97-8.16h-12.55c-9.3,0-13.95-4.8-13.95-14.4v-8.64c0-9.6,4.65-14.4,13.95-14.4h10.69
	c9.3,0,13.95,4.8,13.95,14.4v2.54l-8.83,4.32h-0.46v-6.86c0-3.84-1.55-5.76-4.65-5.76h-10.69c-3.1,0-4.65,1.92-4.65,5.76v8.64
	c0,3.84,1.55,5.76,4.65,5.76h12.55c10.84,0,16.27,5.6,16.27,16.8v10.08c0,11.2-5.43,16.8-16.27,16.8H681.48z"/>
<linearGradient id="SVGID_00000136386617060408181010000015809223361493162684_" gradientUnits="userSpaceOnUse" x1="711.9286" y1="292.1177" x2="355.5549" y2="297.8657">
	<stop  offset="0" style="stop-color:#24356A"/>
	<stop  offset="1" style="stop-color:#1EB1C4"/>
</linearGradient>
<path style="fill:url(#SVGID_00000136386617060408181010000015809223361493162684_);" d="M734.61,327.63v-70.07l4.93-2.4h29.47v0.48
	l-3.77,8.25h-21.33v23.13h25.1v0.48l-3.77,8.25h-21.33v23.13h32.86v0.48l-3.77,8.25H734.61z"/>
<path class="st9" d="M90.9,327.63c-5.33,0-10.19-0.95-14.59-2.85c-4.4-1.9-8.09-4.88-11.09-8.94l4.9-3.4
	c2.46,2.93,5.41,5.21,8.84,6.84c3.43,1.63,7.44,2.45,12.04,2.45c3.13,0,6.01-0.47,8.64-1.4c2.63-0.93,4.75-2.36,6.34-4.3
	c1.6-1.93,2.4-4.33,2.4-7.19c0-2.53-0.51-4.73-1.55-6.59c-1.03-1.86-3.05-3.5-6.04-4.9c-3-1.4-7.46-2.63-13.39-3.7
	c-13.05-2.46-19.58-8.93-19.58-19.38c0-3.8,0.93-7.14,2.8-10.04c1.86-2.9,4.46-5.16,7.79-6.79C81.74,255.81,85.6,255,90,255
	c4.66,0,8.86,0.88,12.59,2.65c3.73,1.77,7.12,4.11,10.19,7.04l-4.4,4.2c-2.66-2.33-5.46-4.21-8.39-5.64
	c-2.93-1.43-6.3-2.15-10.09-2.15c-4.53,0-8.28,1.12-11.24,3.35c-2.96,2.23-4.45,5.45-4.45,9.64c0,3.66,1.18,6.63,3.55,8.89
	c2.36,2.27,6.64,3.96,12.84,5.1c8.59,1.53,14.75,3.93,18.48,7.19c3.73,3.27,5.6,7.76,5.6,13.49c0,3.93-1.05,7.31-3.15,10.14
	c-2.1,2.83-4.95,5-8.54,6.49C99.39,326.88,95.36,327.63,90.9,327.63z"/>
<path class="st9" d="M157.04,327.73c-6.33,0-11.89-1.5-16.68-4.5c-4.8-3-8.54-7.22-11.24-12.69c-2.7-5.46-4.05-11.85-4.05-19.18
	c0-7.32,1.35-13.7,4.05-19.13c2.7-5.43,6.44-9.66,11.24-12.69c4.8-3.03,10.36-4.54,16.68-4.54c6.26,0,11.79,1.51,16.59,4.54
	c4.8,3.03,8.54,7.26,11.24,12.69c2.7,5.43,4.05,11.81,4.05,19.13c0,7.33-1.35,13.72-4.05,19.18c-2.7,5.46-6.44,9.69-11.24,12.69
	C168.83,326.23,163.3,327.73,157.04,327.73z M157.04,321.74c5,0,9.41-1.21,13.24-3.65c3.83-2.43,6.82-5.93,8.99-10.49
	c2.16-4.56,3.25-9.97,3.25-16.24c0-6.26-1.08-11.65-3.25-16.18c-2.17-4.53-5.16-8.01-8.99-10.44c-3.83-2.43-8.24-3.65-13.24-3.65
	c-5,0-9.43,1.22-13.29,3.65c-3.86,2.43-6.9,5.91-9.09,10.44c-2.2,4.53-3.3,9.93-3.3,16.18c0,6.26,1.1,11.67,3.3,16.24
	c2.2,4.56,5.23,8.06,9.09,10.49C147.61,320.52,152.04,321.74,157.04,321.74z"/>
<path class="st9" d="M201.9,327.63V255.5h43.76v5.89h-37.67v25.81h34.37v6.09h-34.37v34.34H201.9z"/>
<path class="st9" d="M275.33,327.63v-66.24h-22.98v-5.89h52.26v5.89h-22.98v66.24H275.33z"/>
</svg>
